<mxfile host="app.diagrams.net" modified="2023-11-03T16:31:22.606Z" agent="Mozilla/5.0 (Macintosh; Intel Mac OS X 10_15_7) AppleWebKit/537.36 (KHTML, like Gecko) Chrome/118.0.0.0 Safari/537.36" version="22.0.8" etag="x9i-2vH1UmCV25REW_aT" type="github">
  <diagram name="페이지-1" id="EtB0Qdf7A67Zi1z-tdCb">
    <mxGraphModel>
      <root>
        <mxCell id="0" />
        <mxCell id="1" parent="0" />
      </root>
    </mxGraphModel>
  </diagram>
</mxfile>
